<svg width="13" height="11" viewBox="0 0 13 11" fill="none" xmlns="http://www.w3.org/2000/svg">
<path d="M5.19345 11L0.516547 6.00296C0.205505 5.64631 0.0361707 5.17458 0.0442197 4.68717C0.0522686 4.19976 0.237072 3.73471 0.559696 3.39C0.88232 3.04529 1.31757 2.84784 1.77376 2.83924C2.22995 2.83064 2.67145 3.01156 3.00526 3.3439L5.19345 5.67936L9.99244 0.551877C10.3244 0.208991 10.7691 0.0191281 11.2308 0.0231806C11.6925 0.0272331 12.1343 0.224877 12.4609 0.573544C12.7875 0.92221 12.9729 1.394 12.9772 1.8873C12.9814 2.3806 12.8041 2.85594 12.4835 3.21094L5.19345 11Z" fill="#242632"/>
</svg>