<svg width="26" height="26" viewBox="0 0 26 26" fill="none" xmlns="http://www.w3.org/2000/svg">
<path d="M25.9242 7.6375C25.7075 2.925 23.0858 0.2925 18.3408 0.0541667C16.9758 0 16.5317 0 13 0C9.46833 0 9.02417 0 7.6375 0.0758333C2.91417 0.2925 0.2925 2.91417 0.0541667 7.65917C0 9.02417 0 9.46833 0 13C0 16.5317 0 16.9758 0.0758333 18.4167C0.2925 23.14 2.91417 25.7617 7.65917 26C9.02417 26 9.46833 26 13 26C16.5317 26 16.9758 26 18.3625 25.9242C23.075 25.7075 25.7075 23.0858 25.9458 18.3408C26 16.9758 26 16.5317 26 13C26 9.46833 26 9.02417 25.9242 7.6375ZM12.8158 19.0342C11.6172 19.0342 10.4455 18.6784 9.44915 18.0121C8.45281 17.3457 7.67664 16.3986 7.21893 15.2908C6.76122 14.1829 6.64257 12.9642 6.878 11.7889C7.11342 10.6136 7.69234 9.5346 8.54143 8.68855C9.39052 7.84249 10.4716 7.26744 11.6477 7.03623C12.8239 6.80502 14.0422 6.92804 15.1484 7.38972C16.2545 7.85139 17.1988 8.63095 17.8616 9.62968C18.5244 10.6284 18.876 11.8014 18.8717 13C18.8702 13.7938 18.7125 14.5796 18.4074 15.3125C18.1023 16.0454 17.6558 16.711 17.0935 17.2713C16.5311 17.8316 15.8639 18.2757 15.13 18.5782C14.396 18.8806 13.6097 19.0356 12.8158 19.0342ZM19.9333 7.58333C19.6248 7.58333 19.3232 7.49184 19.0666 7.32043C18.8101 7.14901 18.6102 6.90537 18.4921 6.62032C18.374 6.33527 18.3431 6.0216 18.4033 5.71899C18.4635 5.41638 18.6121 5.13842 18.8302 4.92025C19.0484 4.70208 19.3264 4.5535 19.629 4.49331C19.9316 4.43312 20.2453 4.46401 20.5303 4.58208C20.8154 4.70015 21.059 4.9001 21.2304 5.15664C21.4018 5.41318 21.4933 5.71479 21.4933 6.02333C21.4933 6.43707 21.329 6.83386 21.0364 7.12642C20.7439 7.41898 20.3471 7.58333 19.9333 7.58333Z" fill="#9B9CA9"/>
<path d="M12.8592 16.8782C15.025 16.8782 16.7808 15.1225 16.7808 12.9566C16.7808 10.7907 15.025 9.03491 12.8592 9.03491C10.6933 9.03491 8.9375 10.7907 8.9375 12.9566C8.9375 15.1225 10.6933 16.8782 12.8592 16.8782Z" fill="#9B9CA9"/>
</svg>
