<svg width="29" height="26" viewBox="0 0 29 26" fill="none" xmlns="http://www.w3.org/2000/svg">
<path d="M11.5699 16.5133C11.5699 16.5133 10.9489 22.3933 10.8959 23.1531C10.8429 23.9128 11.1988 23.9445 11.7366 23.4696C12.2743 22.9948 15.8188 19.7976 15.8188 19.7976C15.8188 19.7976 20.3631 23.4221 21.6128 24.2135C22.8624 25.0049 23.9682 25.8754 24.5817 23.3351C25.1952 20.7947 26.1798 16.6874 27.2628 11.1556C28.3459 5.62378 28.7776 3.06759 28.9593 1.72223C29.1714 0.139451 28.5579 -0.24833 27.2098 0.139451C26.3615 0.40061 16.4626 4.3813 12.2137 6.01948C7.96482 7.65765 2.57986 9.72318 0.981796 10.4275C-0.616272 11.1319 -0.00279563 12.1369 0.981796 12.4772L7.61643 14.7564L23.4759 4.51584C24.0591 4.13597 24.6726 4.23094 23.7789 5.04607C22.8852 5.8612 11.5699 16.5133 11.5699 16.5133Z" fill="#9B9CA9"/>
</svg>
