<svg width="35" height="21" viewBox="0 0 35 21" fill="none" xmlns="http://www.w3.org/2000/svg">
<path d="M34.8145 18.5499C34.7721 18.4586 34.7326 18.3828 34.6959 18.3221C34.0886 17.2284 32.9282 15.886 31.2153 14.2945L31.1791 14.258L31.1609 14.2402L31.1426 14.2219H31.1242C30.3468 13.4808 29.8545 12.9825 29.6484 12.7274C29.2712 12.2414 29.1866 11.7495 29.3928 11.251C29.5385 10.8745 30.0856 10.0792 31.0329 8.8641C31.5312 8.22015 31.9258 7.70404 32.2173 7.31521C34.3192 4.52087 35.2304 2.73525 34.9509 1.95764L34.8423 1.77593C34.7693 1.66653 34.581 1.56645 34.2777 1.47517C33.9736 1.38409 33.585 1.36903 33.111 1.42973L27.8629 1.46598C27.7779 1.43586 27.6565 1.43867 27.4984 1.47517C27.3404 1.51168 27.2614 1.53 27.2614 1.53L27.17 1.57564L27.0975 1.63047C27.0368 1.66672 26.9699 1.73048 26.897 1.82163C26.8244 1.91245 26.7637 2.01904 26.7152 2.14051C26.1438 3.6105 25.4942 4.97723 24.7651 6.24062C24.3156 6.99397 23.9027 7.64686 23.5257 8.19966C23.1492 8.75227 22.8333 9.15943 22.5784 9.42041C22.3231 9.68166 22.0927 9.89095 21.8857 10.049C21.6791 10.2072 21.5214 10.274 21.4122 10.2496C21.3027 10.2251 21.1997 10.2009 21.1021 10.1766C20.9321 10.0672 20.7954 9.91846 20.6923 9.73017C20.5888 9.54188 20.5191 9.30489 20.4826 9.01939C20.4464 8.7337 20.4249 8.48797 20.4188 8.28136C20.4131 8.07501 20.4157 7.78313 20.4281 7.40655C20.4407 7.02978 20.4464 6.77485 20.4464 6.6412C20.4464 6.17947 20.4554 5.67837 20.4734 5.13775C20.4918 4.59714 20.5067 4.1688 20.5191 3.85324C20.5315 3.53736 20.5373 3.20316 20.5373 2.85084C20.5373 2.49851 20.5158 2.2222 20.4734 2.02166C20.4316 1.82137 20.3673 1.62696 20.2826 1.43847C20.1974 1.25019 20.0727 1.10453 19.909 1.00113C19.7451 0.897861 19.5412 0.815907 19.2986 0.755016C18.6546 0.609299 17.8346 0.530473 16.8382 0.518218C14.5787 0.493964 13.1268 0.639872 12.483 0.955751C12.2278 1.08921 11.997 1.27157 11.7906 1.50224C11.5718 1.76961 11.5413 1.91552 11.6992 1.93952C12.4283 2.04872 12.9444 2.30997 13.2481 2.72299L13.3576 2.94185C13.4427 3.09976 13.5277 3.37932 13.6128 3.78016C13.6978 4.18099 13.7526 4.6244 13.7767 5.11012C13.8374 5.99712 13.8374 6.75641 13.7767 7.38804C13.7159 8.01992 13.6585 8.51184 13.6036 8.86416C13.5488 9.21649 13.4668 9.50199 13.3576 9.72059C13.2481 9.93926 13.1753 10.0729 13.1388 10.1214C13.1023 10.1699 13.0719 10.2005 13.0478 10.2125C12.8899 10.273 12.7257 10.3038 12.5557 10.3038C12.3855 10.3038 12.1791 10.2187 11.9361 10.0485C11.6933 9.87837 11.4412 9.64464 11.18 9.34695C10.9187 9.0492 10.6241 8.63311 10.296 8.09862C9.96811 7.56414 9.62791 6.93244 9.27558 6.20354L8.98409 5.67492C8.80186 5.33485 8.55294 4.83968 8.23706 4.18986C7.92098 3.53978 7.64161 2.91096 7.39875 2.30352C7.30167 2.0484 7.15583 1.85418 6.96148 1.72053L6.87027 1.6657C6.80963 1.61719 6.71229 1.56568 6.57877 1.51079C6.44505 1.45596 6.30553 1.41665 6.15962 1.39245L1.1665 1.42871C0.656268 1.42871 0.310071 1.5443 0.127782 1.77516L0.0548273 1.88437C0.0183822 1.9452 0 2.04234 0 2.17606C0 2.30971 0.0364452 2.47375 0.109399 2.66797C0.838303 4.38109 1.63097 6.03325 2.4874 7.62471C3.34383 9.21617 4.08805 10.4981 4.71962 11.4694C5.35131 12.4415 5.9952 13.3589 6.65128 14.2212C7.30735 15.0838 7.74163 15.6366 7.95411 15.8794C8.16685 16.1228 8.33395 16.3047 8.45541 16.4261L8.91107 16.8634C9.20263 17.155 9.63078 17.5043 10.1957 17.9112C10.7608 18.3183 11.3863 18.7192 12.0727 19.1143C12.7593 19.5088 13.5579 19.8308 14.4692 20.0798C15.3803 20.329 16.2671 20.429 17.1297 20.3808H19.2254C19.6505 20.3441 19.9725 20.2104 20.1913 19.9797L20.2638 19.8884C20.3126 19.8159 20.3582 19.7033 20.4004 19.5517C20.443 19.3998 20.4642 19.2325 20.4642 19.0506C20.4517 18.5283 20.4915 18.0575 20.5824 17.6385C20.6732 17.2195 20.7767 16.9036 20.8925 16.6909C21.0082 16.4783 21.1388 16.299 21.2842 16.1536C21.4298 16.0079 21.5336 15.9196 21.5945 15.8892C21.655 15.8586 21.7033 15.8379 21.7398 15.8254C22.0313 15.7283 22.3745 15.8224 22.7697 16.1081C23.1646 16.3936 23.535 16.7461 23.8814 17.1651C24.2277 17.5845 24.6437 18.0549 25.1296 18.5772C25.6157 19.0997 26.0408 19.4881 26.4051 19.7436L26.7695 19.9623C27.0128 20.1082 27.3286 20.2418 27.7175 20.3633C28.1056 20.4847 28.4457 20.5151 28.7377 20.4544L33.4026 20.3816C33.864 20.3816 34.223 20.3052 34.4777 20.1536C34.7329 20.0018 34.8845 19.8345 34.9334 19.6525C34.9821 19.4703 34.9847 19.2637 34.9426 19.0326C34.8994 18.8021 34.8568 18.641 34.8145 18.5499Z" fill="#9B9CA9"/>
</svg>
