<svg width="32" height="21" viewBox="0 0 32 21" fill="none" xmlns="http://www.w3.org/2000/svg">
<path d="M31.5201 4.10325C31.3848 3.11576 30.9015 2.20155 30.1498 1.51082C29.398 0.820089 28.4223 0.393924 27.3831 0.302345C25.4188 0.0777458 21.5263 0 16.4027 0C11.279 0 6.82528 0.155492 4.25441 0.423283C3.41769 0.428703 2.60876 0.71049 1.96515 1.22074C1.32153 1.73098 0.882964 2.43819 0.724002 3.22213C0.278279 5.65321 0.0361183 8.1143 -0.000184749 10.5821C-0.0201688 12.5799 0.128164 14.5761 0.44338 16.5512C0.850735 18.4517 1.92796 20.3435 4.13673 20.5767C6.3455 20.81 11.3243 21 15.9772 21C20.6301 21 23.3729 20.8877 26.7857 20.689C30.1984 20.4903 30.9226 18.9613 31.3118 17.2337C31.7522 15.0382 31.9795 12.8087 31.9908 10.5734C32.0416 8.4075 31.884 6.2417 31.5201 4.10325ZM12.8632 14.979V6.04689L21.0103 10.513L12.8632 14.979Z" fill="#9B9CA9"/>
</svg>
