<svg>
    <symbol id="logo" viewBox="0 0 180 46" fill="none" xmlns="http://www.w3.org/2000/svg">
        <path d="M77.6577 15.243V23.9576H83.0336L81.3667 22.0774V13.3627H75.9952L77.6577 15.243Z" fill="currentColor"/>
        <path d="M90.984 23.9576L89.6837 22.0774V19.7205H91.8829C92.0705 19.7205 92.2363 19.7643 92.4065 19.8517C92.568 19.9348 92.7163 20.0616 92.8385 20.2146C92.9607 20.372 93.0654 20.5513 93.1308 20.7656C93.205 20.9798 93.2399 21.216 93.2399 21.4696V22.3791L92.1491 23.9532H99.2093L97.1933 22.2217V21.7931C97.1933 21.4084 97.1366 21.0585 97.0231 20.7262C96.9097 20.3939 96.7569 20.1053 96.5606 19.8517C96.3642 19.5981 96.133 19.397 95.8668 19.2264C95.6006 19.0646 95.3213 18.9553 95.0159 18.916C95.4042 18.7979 95.7533 18.658 96.0675 18.4918C96.3817 18.33 96.6522 18.1376 96.8791 17.9234C97.106 17.7091 97.2718 17.4599 97.3897 17.1844C97.5075 16.9089 97.5686 16.5985 97.5686 16.253C97.5686 15.8027 97.4726 15.4135 97.2762 15.0899C97.0842 14.7663 96.8224 14.4909 96.4951 14.2766C96.1679 14.0623 95.7839 13.8831 95.3519 13.7519C94.9199 13.6207 94.4617 13.5245 93.9774 13.4589C93.4974 13.3933 93.0087 13.3496 92.5069 13.3277C92.0094 13.3059 91.5338 13.3015 91.0756 13.3015C90.8618 13.3015 90.5913 13.3015 90.264 13.3015C89.9367 13.3015 89.5789 13.3015 89.1775 13.3059C88.776 13.3059 88.3484 13.3103 87.899 13.319C87.4495 13.3234 86.9739 13.3321 86.5026 13.3321C86.0227 13.3321 85.547 13.3365 85.0627 13.3452C84.5783 13.3496 84.1114 13.3584 83.6663 13.3627L85.8918 15.243V22.0861L83.662 23.9663L90.984 23.9576ZM89.6837 14.9106H90.7309C90.9447 14.9106 91.1629 14.915 91.3942 14.9281C91.6254 14.9412 91.848 14.9675 92.0705 15.0025C92.2887 15.0374 92.4981 15.0987 92.6945 15.173C92.8909 15.2473 93.0654 15.3479 93.2138 15.4791C93.3665 15.6015 93.4799 15.7589 93.5672 15.947C93.6501 16.135 93.6981 16.358 93.6981 16.6203C93.6981 16.957 93.637 17.2412 93.5192 17.4555C93.4014 17.6698 93.2225 17.8403 92.9738 17.9627C92.7338 18.0852 92.4152 18.1726 92.0443 18.2163C91.6734 18.2601 91.2327 18.2819 90.7309 18.2819H89.6837V14.9106Z" fill="currentColor"/>
        <path d="M63.8166 22.0774L61.8007 23.9576H70.5408L67.5911 22.0774V19.8604H72.1989V18.2382H67.5911V15.0549H72.1117L74.9785 17.027L75.1182 13.3627H61.8007L63.8166 15.243V22.0774Z" fill="currentColor"/>
        <path d="M18.0606 15.4572L17.441 23.1705L17.4541 23.1618L16.2585 37.9281C16.2585 38.0068 16.2716 38.0812 16.3021 38.1555C16.4898 38.6278 17.2883 38.9382 18.0344 39.135L19.7668 15.6759L21.2722 15.5403V39.6116C21.5427 39.6335 21.8089 39.651 22.0751 39.6684C23.166 39.7384 24.2568 39.7778 25.3477 39.8171C26.4473 39.8565 27.5513 39.8914 28.6509 39.9527C29.3884 39.992 30.1258 40.0445 30.8632 40.1232L28.8822 15.4616L30.3091 13.1572L29.1484 12.7375L29.1702 10.4418L29.7854 9.92148C29.1484 8.96825 27.2371 8.2424 26.4212 7.42034C26.1942 7.18859 25.3739 6.42776 25.2605 6.24411C24.7717 5.41768 25.2299 5.39582 24.283 4.82738L23.6198 0.0262357L23.4714 0L23.3274 0.0262357L22.6598 4.823C21.7129 5.38707 22.1711 5.41331 21.6824 6.23973C21.5733 6.42776 20.7529 7.18859 20.5217 7.41597C19.7057 8.2424 17.7901 8.96825 17.1574 9.91711L17.7726 10.4375L17.7944 12.7331L16.6337 13.1529L18.0606 15.4572ZM25.8452 9.37491C26.6524 9.49297 27.3899 9.67224 28.0313 9.89962V12.4795L28.0095 12.4751C27.3593 12.3702 26.6393 12.2871 25.867 12.2302L25.8452 9.37491ZM25.3695 17.7878C25.7579 17.8622 26.0764 18.2732 26.0764 18.7017V20.8006C25.6314 20.735 25.1601 20.6825 24.6626 20.6519V18.4394C24.6626 18.0065 24.9812 17.7135 25.3695 17.7878ZM21.8525 9.29183C22.3849 9.23935 22.9391 9.20875 23.5107 9.20875C23.9994 9.20875 24.4794 9.23061 24.9419 9.26996V12.1778C24.4663 12.1559 23.9732 12.1471 23.467 12.1471C22.9129 12.1471 22.3718 12.1603 21.8525 12.1865V9.29183ZM18.9159 9.93023C19.505 9.71597 20.1769 9.54107 20.9144 9.41863L20.9275 12.2477C20.2031 12.3046 19.5268 12.3833 18.9159 12.4838V9.93023Z" fill="currentColor"/>
        <path d="M155.878 23.9576L154.578 22.0774V19.7205H156.777C156.965 19.7205 157.131 19.7643 157.301 19.8517C157.462 19.9348 157.611 20.0616 157.733 20.2146C157.855 20.372 157.96 20.5513 158.025 20.7656C158.099 20.9798 158.134 21.216 158.134 21.4696V22.3791L157.043 23.9532H164.104L162.088 22.2217V21.7931C162.088 21.4084 162.031 21.0585 161.918 20.7262C161.804 20.3939 161.651 20.1053 161.455 19.8517C161.259 19.5981 161.027 19.397 160.761 19.2264C160.495 19.0646 160.216 18.9553 159.91 18.916C160.299 18.7979 160.648 18.658 160.962 18.4918C161.276 18.33 161.547 18.1376 161.774 17.9234C162 17.7091 162.166 17.4599 162.284 17.1844C162.402 16.9089 162.463 16.5985 162.463 16.253C162.463 15.8027 162.367 15.4135 162.171 15.0899C161.979 14.7663 161.717 14.4909 161.39 14.2766C161.062 14.0623 160.678 13.8831 160.246 13.7519C159.814 13.6207 159.356 13.5245 158.872 13.4589C158.392 13.3933 157.903 13.3496 157.401 13.3277C156.904 13.3059 156.428 13.3015 155.97 13.3015C155.756 13.3015 155.486 13.3015 155.158 13.3015C154.831 13.3015 154.473 13.3015 154.072 13.3059C153.67 13.3059 153.243 13.3103 152.793 13.319C152.344 13.3234 151.868 13.3321 151.397 13.3321C150.917 13.3321 150.441 13.3365 149.957 13.3452C149.473 13.3496 149.006 13.3584 148.561 13.3627L150.786 15.243V22.0861L148.556 23.9663L155.878 23.9576ZM154.578 14.9106H155.625C155.839 14.9106 156.057 14.915 156.289 14.9281C156.52 14.9412 156.742 14.9675 156.965 15.0025C157.183 15.0374 157.393 15.0987 157.589 15.173C157.785 15.2473 157.96 15.3479 158.108 15.4791C158.261 15.6015 158.374 15.7589 158.462 15.947C158.545 16.135 158.593 16.358 158.593 16.6203C158.593 16.957 158.531 17.2412 158.414 17.4555C158.296 17.6698 158.117 17.8403 157.868 17.9627C157.628 18.0852 157.31 18.1726 156.939 18.2163C156.568 18.2601 156.127 18.2819 155.625 18.2819H154.578V14.9106Z" fill="currentColor"/>
        <path d="M99.3576 23.9576H112.313V20.4595L109.381 22.2654H105.148V19.1215H109.464V17.4992H105.148V15.0549H109.381L112.247 17.0314L112.387 13.3627H99.3576L101.369 15.243V22.0774L99.3576 23.9576Z" fill="currentColor"/>
        <path d="M117.929 23.9576H123.654V18.9597H127.603V23.9576H133.319L131.312 22.0774V15.243L133.184 13.3627H127.603V17.4074H123.654V13.3627H117.929L119.945 15.2298V22.0774L117.929 23.9576Z" fill="currentColor"/>
        <path d="M112.701 31.0063L114.451 28.4745H103.11L105.187 30.9188L100.632 40.2719L97.7823 42.7687H106.793L104.013 40.2719L104.467 39.2225H110.851L111.266 40.2719L109.162 42.7687H119.321L116.777 40.2457L112.701 31.0063ZM105.384 37.1411L107.832 31.5179L110.048 37.1411H105.384Z" fill="currentColor"/>
        <path d="M93.109 30.7614L96.9707 33.4244L97.1627 28.4745H79.5777L82.2962 31.0063V40.2369L79.5777 42.7687H97.0667V38.055L93.109 40.4861H87.3928V36.2491H93.2268V34.054H87.3928V30.7614H93.109Z" fill="currentColor"/>
        <path d="M154.294 31.0063V35.5188C154.294 36.236 154.26 36.8656 154.185 37.4034C154.12 37.9413 154.011 38.4004 153.88 38.7896C153.749 39.1744 153.588 39.4936 153.396 39.7472C153.204 40.0008 152.985 40.1976 152.737 40.3462C152.488 40.4949 152.217 40.5955 151.921 40.6523C151.624 40.7092 151.301 40.7354 150.965 40.7354C150.402 40.7354 149.913 40.6436 149.495 40.4643C149.071 40.2763 148.722 39.9789 148.447 39.5679C148.172 39.1525 147.963 38.6147 147.823 37.95C147.684 37.2898 147.614 36.4765 147.614 35.5232V31.0019L150.075 28.4789H139.895L142.618 31.0019V36.1223C142.618 37.2941 142.749 38.3173 143.019 39.1962C143.29 40.0751 143.722 40.8097 144.324 41.3957C144.926 41.9816 145.716 42.4232 146.689 42.7162C147.662 43.0092 148.849 43.1578 150.258 43.1578C150.93 43.1578 151.563 43.1185 152.156 43.0266C152.754 42.9436 153.3 42.7905 153.801 42.585C154.308 42.3751 154.757 42.0996 155.158 41.7498C155.564 41.4044 155.896 40.9715 156.175 40.4512C156.45 39.9308 156.664 39.3099 156.812 38.5972C156.961 37.8801 157.039 37.058 157.039 36.1223V31.0063L159.518 28.4745H152.187L154.294 31.0063Z" fill="currentColor"/>
        <path d="M132.979 37.9456V40.438C132.643 40.6523 132.267 40.8009 131.853 40.884C131.443 40.9627 130.954 41.0065 130.382 41.0065C129.741 41.0065 129.121 40.8884 128.541 40.6566C127.956 40.4249 127.441 40.0751 127.005 39.6247C126.573 39.17 126.215 38.6059 125.958 37.9325C125.691 37.2547 125.565 36.4764 125.565 35.5975C125.565 34.6705 125.683 33.8703 125.918 33.2013C126.158 32.5279 126.481 31.9726 126.887 31.531C127.293 31.0893 127.773 30.7701 128.31 30.5559C128.851 30.346 129.422 30.2323 130.024 30.2323C130.57 30.2323 131.107 30.2979 131.622 30.4422C132.145 30.5777 132.634 30.7789 133.096 31.0456C133.559 31.3123 133.982 31.6359 134.362 32.0207C134.75 32.4055 135.077 32.8515 135.348 33.3456H137.809V28.4833H135.64L134.899 29.454C134.532 29.2528 134.126 29.0692 133.694 28.9074C133.262 28.7369 132.804 28.5969 132.328 28.4789C131.848 28.3608 131.355 28.2646 130.854 28.2034C130.347 28.1378 129.841 28.1028 129.339 28.1028C128.506 28.1028 127.69 28.1772 126.891 28.3171C126.097 28.457 125.351 28.68 124.64 28.973C123.929 29.266 123.283 29.6289 122.694 30.0618C122.109 30.4947 121.594 30.9975 121.167 31.5747C120.739 32.1563 120.407 32.8034 120.172 33.5249C119.936 34.2464 119.818 35.0466 119.818 35.9036C119.818 36.8175 119.936 37.622 120.172 38.3348C120.407 39.0475 120.748 39.6641 121.18 40.2063C121.612 40.7441 122.126 41.1988 122.729 41.5705C123.326 41.9422 123.99 42.2527 124.71 42.4888C125.434 42.7249 126.206 42.8954 127.027 42.996C127.847 43.1053 128.694 43.1534 129.566 43.1534C130.072 43.1534 130.579 43.1315 131.076 43.0791C131.574 43.0353 132.053 42.9479 132.529 42.843C133 42.7336 133.454 42.5893 133.886 42.4144C134.318 42.2395 134.724 42.0253 135.108 41.7717L135.636 42.7686H137.927V35.1559H130.16L132.979 37.9456Z" fill="currentColor"/>
        <path d="M142.552 24.115C143.098 24.0232 143.617 23.8833 144.119 23.6909C144.62 23.4985 145.087 23.258 145.524 22.9563C145.964 22.6633 146.344 22.3091 146.667 21.8937C146.994 21.4827 147.252 21.0017 147.439 20.4683C147.627 19.9304 147.719 19.327 147.719 18.658C147.719 17.9802 147.627 17.3724 147.448 16.8259C147.269 16.2837 147.02 15.807 146.706 15.3916C146.383 14.9806 146.012 14.6264 145.58 14.3291C145.148 14.0318 144.686 13.8 144.184 13.612C143.682 13.424 143.159 13.2884 142.609 13.2053C142.059 13.1223 141.501 13.0742 140.946 13.0742C140.44 13.0742 139.921 13.1179 139.393 13.2053C138.865 13.2884 138.346 13.424 137.844 13.612C137.342 13.8 136.871 14.0361 136.43 14.3291C135.985 14.6221 135.597 14.9719 135.265 15.3916C134.933 15.807 134.676 16.2837 134.475 16.8259C134.283 17.3681 134.187 17.9759 134.187 18.658C134.187 19.3532 134.283 19.9742 134.467 20.512C134.654 21.0586 134.907 21.5396 135.23 21.9506C135.553 22.3616 135.933 22.7158 136.373 23.0044C136.805 23.293 137.281 23.5291 137.778 23.7171C138.276 23.9051 138.795 24.0319 139.336 24.1194C139.877 24.2025 140.41 24.2418 140.942 24.2418C141.47 24.2462 142.007 24.1981 142.552 24.115ZM139.912 22.4228C139.602 22.2129 139.332 21.9243 139.109 21.5658C138.882 21.1985 138.708 20.77 138.586 20.2802C138.464 19.7818 138.398 19.2483 138.398 18.6624C138.398 18.0852 138.459 17.5473 138.586 17.0445C138.712 16.5416 138.882 16.1044 139.109 15.7283C139.336 15.3567 139.607 15.0637 139.912 14.8494C140.218 14.6352 140.567 14.5259 140.938 14.5259C141.326 14.5259 141.675 14.6352 141.989 14.8494C142.303 15.0637 142.574 15.3567 142.801 15.7283C143.028 16.1 143.194 16.5416 143.311 17.0445C143.429 17.5517 143.49 18.0939 143.49 18.6624C143.49 19.2308 143.429 19.7686 143.303 20.2627C143.172 20.7612 142.997 21.1897 142.775 21.5483C142.548 21.9112 142.277 22.2042 141.963 22.4097C141.653 22.624 141.309 22.7245 140.938 22.7245C140.562 22.7333 140.226 22.6283 139.912 22.4228Z" fill="currentColor"/>
        <path d="M173.228 30.7614L177.09 33.4244L177.282 28.4745H159.696L162.415 31.0063V40.2369L159.696 42.7687H177.186V38.055L173.228 40.4861H167.516V36.2491H173.346V34.054H167.516V30.7614H173.228Z" fill="currentColor"/>
        <path d="M173.324 13.3627L175.331 15.243V18.6842L169.554 13.3627H164.069L166.281 15.4441V22.0774L164.335 23.9576H170.392L168.232 22.0774V17.2806L175.331 23.9576H177.282V15.243L179.084 13.3627H173.324Z" fill="currentColor"/>
        <path d="M39.6907 42.9698C37.5177 42.0603 34.8036 41.3519 31.5527 40.8403C25.963 40.0533 15.604 41.0502 15.6302 37.9063L16.7298 24.3337C14.1073 25.9122 12.3968 27.2371 9.54744 25.7635C9.17217 27.0228 9.84416 27.9017 10.6601 28.7282C8.57873 28.9118 6.41006 28.3434 4.15848 27.2021C4.30684 27.823 4.04066 29.4671 4.75628 31.1375C5.45444 32.7772 1.40509 31.4654 0.654561 30.9888C0.824738 32.2875 0.960008 33.7086 2.80142 34.2901C2.50906 35.4008 1.14764 35.5976 0.00439453 35.2477C0.685105 37.3816 1.87199 37.0318 3.57813 38.5928C3.04578 39.5898 1.57527 39.7515 0.64147 39.4061C1.64945 41.7367 2.30834 44.2204 4.65592 45.6983H13.6841H14.1597H14.3517H14.6353H15.0062H31.9498C36.1868 45.6983 41.0696 45.6983 44.0542 45.6983C42.9197 44.5177 41.4579 43.6607 39.6907 42.9698Z" fill="currentColor"/>
        <path d="M69.6201 40.4861V31.0063L73.3073 28.4745H61.8007L64.5191 31.0063V40.2369L61.8007 42.7687H78.705V36.9574L74.7472 40.4861H69.6201Z" fill="currentColor"/>
        <path d="M55.3558 30.8314C52.982 28.9861 52.6286 26.7167 51.8082 25.5711C48.9981 25.2388 48.1341 21.8981 47.3356 18.4612C46.8163 19.3226 46.5458 20.4289 46.4847 21.7319C41.9815 14.5871 38.1853 11.6924 35.061 12.838C38.2856 14.1629 39.7867 16.3492 39.887 19.2395C37.3038 17.3331 34.5025 15.8814 30.8022 16.323C32.5258 16.9177 33.7956 17.7222 33.2152 19.3795C32.072 19.5237 30.9549 19.6899 29.8727 19.8779L30.776 31.1418C30.9505 31.1068 31.1338 31.0762 31.3171 31.0412C31.3651 32.5279 31.2298 32.4667 31.7883 33.3325C33.2021 35.5144 38.4558 35.8642 41.2179 39.0737C42.0994 35.427 32.9185 34.5874 36.4355 30.3416C37.522 30.5122 39.0187 29.9962 39.8129 30.5384C39.3067 31.4523 38.4427 31.7496 37.2209 31.426C37.2166 33.127 39.2325 33.5599 41.1612 35.5232C42.5881 36.9749 42.0732 38.7983 42.8237 39.7384C43.5001 40.5867 46.1662 40.4205 48.8323 41.0371C51.673 41.6929 54.5311 43.0878 55.5303 42.6331C55.2598 41.0152 57.8692 39.5679 57.3106 38.431C56.5557 39.0431 51.4286 38.1905 50.5995 37.9806C49.7443 37.7095 49.4737 36.5726 48.1167 35.803C48.8628 35.838 51.001 36.9137 51.9566 37.4952C51.1537 33.1357 44.1371 34.8585 45.1407 30.3154C48.1123 30.8445 50.2592 34.6224 52.9733 34.6836C52.9384 35.0815 52.6198 35.4401 52.1835 35.7855C53.4184 36.1179 54.3434 35.5494 55.2467 34.8979C55.1987 35.3264 54.7274 35.6806 54.2431 36.0304C55.3601 36.1572 56.1718 35.7462 56.8743 35.134C56.9092 35.4751 56.8656 35.8511 56.7957 36.2403C58.2313 35.7593 58.6982 34.8323 59.139 33.8922C59.1739 33.1357 59.187 32.8559 59.2219 32.095C58.9208 31.9857 58.6197 31.872 58.3186 31.7627C57.0532 31.719 56.0147 31.4566 55.3558 30.8314ZM50.8657 29.9874C50.2068 30.1973 49.8446 30.3285 49.1465 30.3329C48.0556 30.3416 47.4011 28.8462 47.1916 27.9585C47.1392 27.7312 47.1 27.5038 47.0782 27.272L46.9822 26.192L47.9334 26.708C48.121 26.8085 48.3087 26.9004 48.5007 26.9966C49.5174 27.5169 50.281 28.2165 51.097 29.0123L51.7908 29.6945L50.8657 29.9874Z" fill="currentColor"/>
    </symbol>	

    <symbol id="user" viewBox="0 0 18 17" fill="none" xmlns="http://www.w3.org/2000/svg">
        <path d="M18 17L15.9669 13.0693C15.7173 12.5663 15.3266 12.142 14.8398 11.8452C14.353 11.5484 13.7898 11.391 13.2151 11.3912H4.70549C4.13064 11.3905 3.56729 11.5477 3.0804 11.8446C2.59352 12.1415 2.20293 12.566 1.95367 13.0693L0 17H18Z" fill="currentColor"/>
        <path d="M8.9583 8.87225C11.4803 8.87225 13.5248 6.88613 13.5248 4.43613C13.5248 1.98612 11.4803 0 8.9583 0C6.43628 0 4.39178 1.98612 4.39178 4.43613C4.39178 6.88613 6.43628 8.87225 8.9583 8.87225Z" fill="currentColor"/>
    </symbol>

    <symbol id="close" viewBox="0 0 15 15" fill="none" xmlns="http://www.w3.org/2000/svg">
        <path d="M10.1659 7.50083L14.4461 3.21805C14.6215 3.04323 14.7607 2.8355 14.8557 2.60677C14.9507 2.37804 14.9996 2.13281 14.9996 1.88515C14.9996 1.63748 14.9507 1.39225 14.8557 1.16352C14.7607 0.934795 14.6215 0.727064 14.4461 0.552243C14.2713 0.376814 14.0636 0.23762 13.8348 0.142645C13.6061 0.0476689 13.3609 -0.0012207 13.1132 -0.0012207C12.8655 -0.0012207 12.6203 0.0476689 12.3916 0.142645C12.1629 0.23762 11.9551 0.376814 11.7803 0.552243L7.5001 4.83245L3.21732 0.552243C3.0425 0.376814 2.83477 0.23762 2.60604 0.142645C2.37731 0.0476689 2.13208 -0.0012207 1.88442 -0.0012207C1.63675 -0.0012207 1.39152 0.0476689 1.16279 0.142645C0.934063 0.23762 0.726331 0.376814 0.55151 0.552243C0.376081 0.727064 0.236888 0.934795 0.141912 1.16352C0.0469365 1.39225 -0.00195312 1.63748 -0.00195312 1.88515C-0.00195313 2.13281 0.0469365 2.37804 0.141912 2.60677C0.236888 2.8355 0.376081 3.04323 0.55151 3.21805L4.83172 7.50083L0.55151 11.781C0.198002 12.1345 -0.00059706 12.614 -0.000597055 13.1139C-0.000597049 13.6139 0.198002 14.0933 0.55151 14.4468C0.905019 14.8004 1.38448 14.999 1.88442 14.999C2.38435 14.999 2.86381 14.8004 3.21732 14.4468L7.5001 10.1666L11.7803 14.4468C12.1338 14.8004 12.6133 14.999 13.1132 14.999C13.6131 14.999 14.0926 14.8004 14.4461 14.4468C14.7996 14.0933 14.9982 13.6139 14.9982 13.1139C14.9982 12.614 14.7996 12.1345 14.4461 11.781L10.1659 7.50083Z" fill="white"/>
    </symbol> 	

    <symbol id="vk" viewBox="0 0 35 21" fill="none" xmlns="http://www.w3.org/2000/svg">
        <path d="M34.8145 18.5499C34.7721 18.4586 34.7326 18.3828 34.6959 18.3221C34.0886 17.2284 32.9282 15.886 31.2153 14.2945L31.1791 14.258L31.1609 14.2402L31.1426 14.2219H31.1242C30.3468 13.4808 29.8545 12.9825 29.6484 12.7274C29.2712 12.2414 29.1866 11.7495 29.3928 11.251C29.5385 10.8745 30.0856 10.0792 31.0329 8.8641C31.5312 8.22015 31.9258 7.70404 32.2173 7.31521C34.3192 4.52087 35.2304 2.73525 34.9509 1.95764L34.8423 1.77593C34.7693 1.66653 34.581 1.56645 34.2777 1.47517C33.9736 1.38409 33.585 1.36903 33.111 1.42973L27.8629 1.46598C27.7779 1.43586 27.6565 1.43867 27.4984 1.47517C27.3404 1.51168 27.2614 1.53 27.2614 1.53L27.17 1.57564L27.0975 1.63047C27.0368 1.66672 26.9699 1.73048 26.897 1.82163C26.8244 1.91245 26.7637 2.01904 26.7152 2.14051C26.1438 3.6105 25.4942 4.97723 24.7651 6.24062C24.3156 6.99397 23.9027 7.64686 23.5257 8.19966C23.1492 8.75227 22.8333 9.15943 22.5784 9.42041C22.3231 9.68166 22.0927 9.89095 21.8857 10.049C21.6791 10.2072 21.5214 10.274 21.4122 10.2496C21.3027 10.2251 21.1997 10.2009 21.1021 10.1766C20.9321 10.0672 20.7954 9.91846 20.6923 9.73017C20.5888 9.54188 20.5191 9.30489 20.4826 9.01939C20.4464 8.7337 20.4249 8.48797 20.4188 8.28136C20.4131 8.07501 20.4157 7.78313 20.4281 7.40655C20.4407 7.02978 20.4464 6.77485 20.4464 6.6412C20.4464 6.17947 20.4554 5.67837 20.4734 5.13775C20.4918 4.59714 20.5067 4.1688 20.5191 3.85324C20.5315 3.53736 20.5373 3.20316 20.5373 2.85084C20.5373 2.49851 20.5158 2.2222 20.4734 2.02166C20.4316 1.82137 20.3673 1.62696 20.2826 1.43847C20.1974 1.25019 20.0727 1.10453 19.909 1.00113C19.7451 0.897861 19.5412 0.815907 19.2986 0.755016C18.6546 0.609299 17.8346 0.530473 16.8382 0.518218C14.5787 0.493964 13.1268 0.639872 12.483 0.955751C12.2278 1.08921 11.997 1.27157 11.7906 1.50224C11.5718 1.76961 11.5413 1.91552 11.6992 1.93952C12.4283 2.04872 12.9444 2.30997 13.2481 2.72299L13.3576 2.94185C13.4427 3.09976 13.5277 3.37932 13.6128 3.78016C13.6978 4.18099 13.7526 4.6244 13.7767 5.11012C13.8374 5.99712 13.8374 6.75641 13.7767 7.38804C13.7159 8.01992 13.6585 8.51184 13.6036 8.86416C13.5488 9.21649 13.4668 9.50199 13.3576 9.72059C13.2481 9.93926 13.1753 10.0729 13.1388 10.1214C13.1023 10.1699 13.0719 10.2005 13.0478 10.2125C12.8899 10.273 12.7257 10.3038 12.5557 10.3038C12.3855 10.3038 12.1791 10.2187 11.9361 10.0485C11.6933 9.87837 11.4412 9.64464 11.18 9.34695C10.9187 9.0492 10.6241 8.63311 10.296 8.09862C9.96811 7.56414 9.62791 6.93244 9.27558 6.20354L8.98409 5.67492C8.80186 5.33485 8.55294 4.83968 8.23706 4.18986C7.92098 3.53978 7.64161 2.91096 7.39875 2.30352C7.30167 2.0484 7.15583 1.85418 6.96148 1.72053L6.87027 1.6657C6.80963 1.61719 6.71229 1.56568 6.57877 1.51079C6.44505 1.45596 6.30553 1.41665 6.15962 1.39245L1.1665 1.42871C0.656268 1.42871 0.310071 1.5443 0.127782 1.77516L0.0548273 1.88437C0.0183822 1.9452 0 2.04234 0 2.17606C0 2.30971 0.0364452 2.47375 0.109399 2.66797C0.838303 4.38109 1.63097 6.03325 2.4874 7.62471C3.34383 9.21617 4.08805 10.4981 4.71962 11.4694C5.35131 12.4415 5.9952 13.3589 6.65128 14.2212C7.30735 15.0838 7.74163 15.6366 7.95411 15.8794C8.16685 16.1228 8.33395 16.3047 8.45541 16.4261L8.91107 16.8634C9.20263 17.155 9.63078 17.5043 10.1957 17.9112C10.7608 18.3183 11.3863 18.7192 12.0727 19.1143C12.7593 19.5088 13.5579 19.8308 14.4692 20.0798C15.3803 20.329 16.2671 20.429 17.1297 20.3808H19.2254C19.6505 20.3441 19.9725 20.2104 20.1913 19.9797L20.2638 19.8884C20.3126 19.8159 20.3582 19.7033 20.4004 19.5517C20.443 19.3998 20.4642 19.2325 20.4642 19.0506C20.4517 18.5283 20.4915 18.0575 20.5824 17.6385C20.6732 17.2195 20.7767 16.9036 20.8925 16.6909C21.0082 16.4783 21.1388 16.299 21.2842 16.1536C21.4298 16.0079 21.5336 15.9196 21.5945 15.8892C21.655 15.8586 21.7033 15.8379 21.7398 15.8254C22.0313 15.7283 22.3745 15.8224 22.7697 16.1081C23.1646 16.3936 23.535 16.7461 23.8814 17.1651C24.2277 17.5845 24.6437 18.0549 25.1296 18.5772C25.6157 19.0997 26.0408 19.4881 26.4051 19.7436L26.7695 19.9623C27.0128 20.1082 27.3286 20.2418 27.7175 20.3633C28.1056 20.4847 28.4457 20.5151 28.7377 20.4544L33.4026 20.3816C33.864 20.3816 34.223 20.3052 34.4777 20.1536C34.7329 20.0018 34.8845 19.8345 34.9334 19.6525C34.9821 19.4703 34.9847 19.2637 34.9426 19.0326C34.8994 18.8021 34.8568 18.641 34.8145 18.5499Z" fill="currentColor"/>
    </symbol>

    <symbol id="telegram" viewBox="0 0 29 26" fill="none" xmlns="http://www.w3.org/2000/svg">
        <path d="M11.5699 16.5133C11.5699 16.5133 10.9489 22.3933 10.8959 23.1531C10.8429 23.9128 11.1988 23.9445 11.7366 23.4696C12.2743 22.9948 15.8188 19.7976 15.8188 19.7976C15.8188 19.7976 20.3631 23.4221 21.6128 24.2135C22.8624 25.0049 23.9682 25.8754 24.5817 23.3351C25.1952 20.7947 26.1798 16.6874 27.2628 11.1556C28.3459 5.62378 28.7776 3.06759 28.9593 1.72223C29.1714 0.139451 28.5579 -0.24833 27.2098 0.139451C26.3615 0.40061 16.4626 4.3813 12.2137 6.01948C7.96482 7.65765 2.57986 9.72318 0.981796 10.4275C-0.616272 11.1319 -0.00279563 12.1369 0.981796 12.4772L7.61643 14.7564L23.4759 4.51584C24.0591 4.13597 24.6726 4.23094 23.7789 5.04607C22.8852 5.8612 11.5699 16.5133 11.5699 16.5133Z" fill="currentColor"/>
    </symbol>

    <symbol id="youtube" viewBox="0 0 32 21" fill="none" xmlns="http://www.w3.org/2000/svg">
        <path d="M31.5201 4.10325C31.3848 3.11576 30.9015 2.20155 30.1498 1.51082C29.398 0.820089 28.4223 0.393924 27.3831 0.302345C25.4188 0.0777458 21.5263 0 16.4027 0C11.279 0 6.82528 0.155492 4.25441 0.423283C3.41769 0.428703 2.60876 0.71049 1.96515 1.22074C1.32153 1.73098 0.882964 2.43819 0.724002 3.22213C0.278279 5.65321 0.0361183 8.1143 -0.000184749 10.5821C-0.0201688 12.5799 0.128164 14.5761 0.44338 16.5512C0.850735 18.4517 1.92796 20.3435 4.13673 20.5767C6.3455 20.81 11.3243 21 15.9772 21C20.6301 21 23.3729 20.8877 26.7857 20.689C30.1984 20.4903 30.9226 18.9613 31.3118 17.2337C31.7522 15.0382 31.9795 12.8087 31.9908 10.5734C32.0416 8.4075 31.884 6.2417 31.5201 4.10325ZM12.8632 14.979V6.04689L21.0103 10.513L12.8632 14.979Z" fill="currentColor"/>
    </symbol>

    <symbol id="instagram" viewBox="0 0 26 26" fill="none" xmlns="http://www.w3.org/2000/svg">
        <path d="M25.9242 7.6375C25.7075 2.925 23.0858 0.2925 18.3408 0.0541667C16.9758 0 16.5317 0 13 0C9.46833 0 9.02417 0 7.6375 0.0758333C2.91417 0.2925 0.2925 2.91417 0.0541667 7.65917C0 9.02417 0 9.46833 0 13C0 16.5317 0 16.9758 0.0758333 18.4167C0.2925 23.14 2.91417 25.7617 7.65917 26C9.02417 26 9.46833 26 13 26C16.5317 26 16.9758 26 18.3625 25.9242C23.075 25.7075 25.7075 23.0858 25.9458 18.3408C26 16.9758 26 16.5317 26 13C26 9.46833 26 9.02417 25.9242 7.6375ZM12.8158 19.0342C11.6172 19.0342 10.4455 18.6784 9.44915 18.0121C8.45281 17.3457 7.67664 16.3986 7.21893 15.2908C6.76122 14.1829 6.64257 12.9642 6.878 11.7889C7.11342 10.6136 7.69234 9.5346 8.54143 8.68855C9.39052 7.84249 10.4716 7.26744 11.6477 7.03623C12.8239 6.80502 14.0422 6.92804 15.1484 7.38972C16.2545 7.85139 17.1988 8.63095 17.8616 9.62968C18.5244 10.6284 18.876 11.8014 18.8717 13C18.8702 13.7938 18.7125 14.5796 18.4074 15.3125C18.1023 16.0454 17.6558 16.711 17.0935 17.2713C16.5311 17.8316 15.8639 18.2757 15.13 18.5782C14.396 18.8806 13.6097 19.0356 12.8158 19.0342ZM19.9333 7.58333C19.6248 7.58333 19.3232 7.49184 19.0666 7.32043C18.8101 7.14901 18.6102 6.90537 18.4921 6.62032C18.374 6.33527 18.3431 6.0216 18.4033 5.71899C18.4635 5.41638 18.6121 5.13842 18.8302 4.92025C19.0484 4.70208 19.3264 4.5535 19.629 4.49331C19.9316 4.43312 20.2453 4.46401 20.5303 4.58208C20.8154 4.70015 21.059 4.9001 21.2304 5.15664C21.4018 5.41318 21.4933 5.71479 21.4933 6.02333C21.4933 6.43707 21.329 6.83386 21.0364 7.12642C20.7439 7.41898 20.3471 7.58333 19.9333 7.58333Z" fill="currentColor"/>
        <path d="M12.8592 16.8782C15.025 16.8782 16.7808 15.1225 16.7808 12.9566C16.7808 10.7907 15.025 9.03491 12.8592 9.03491C10.6933 9.03491 8.9375 10.7907 8.9375 12.9566C8.9375 15.1225 10.6933 16.8782 12.8592 16.8782Z" fill="currentColor"/>
    </symbol>

</svg>