<svg width="18" height="17" viewBox="0 0 18 17" fill="none" xmlns="http://www.w3.org/2000/svg">
<path d="M18 17L15.9669 13.0693C15.7173 12.5663 15.3266 12.142 14.8398 11.8452C14.353 11.5484 13.7898 11.391 13.2151 11.3912H4.70549C4.13064 11.3905 3.56729 11.5477 3.0804 11.8446C2.59352 12.1415 2.20293 12.566 1.95367 13.0693L0 17H18Z" fill="white"/>
<path d="M8.9583 8.87225C11.4803 8.87225 13.5248 6.88613 13.5248 4.43613C13.5248 1.98612 11.4803 0 8.9583 0C6.43628 0 4.39178 1.98612 4.39178 4.43613C4.39178 6.88613 6.43628 8.87225 8.9583 8.87225Z" fill="white"/>
</svg>
